<svg width="192" height="192" viewBox="0 0 192 192" fill="none" xmlns="http://www.w3.org/2000/svg">
    <g clip-path="url(#clip0_246_5786)">
        <path d="M170.31 89.17L101.56 25.67C98.49 22.84 93.77 22.84 90.7 25.67L21.96 89.17C19.44 91.69 21.22 96 24.79 96H44.13V152C44.13 156.42 47.71 160 52.13 160H140.13C144.55 160 148.13 156.42 148.13 152V96H167.47C171.03 96 172.82 91.69 170.3 89.17H170.31ZM110.14 144H82.14C78.83 144 76.14 141.31 76.14 138C76.14 134.69 78.83 132 82.14 132H110.14C113.45 132 116.14 134.69 116.14 138C116.14 141.31 113.45 144 110.14 144Z" fill="white"/>
    </g>
    <defs>
        <clipPath id="clip0_246_5786">
            <rect width="191.75" height="191.75" fill="white"/>
        </clipPath>
    </defs>
</svg>
