<svg width="192" height="192" viewBox="0 0 192 192" fill="none" xmlns="http://www.w3.org/2000/svg">
    <g clip-path="url(#clip0_277_9050)">
        <path d="M135.75 50H55.75C42.5 50 31.75 60.75 31.75 74V118C31.75 131.25 42.5 142 55.75 142H123.75L140.34 158.59C141.6 159.85 143.75 158.96 143.75 157.18V140.64C153.07 137.34 159.75 128.46 159.75 118.01V74.01C159.75 60.76 149 50.01 135.75 50.01V50ZM61.75 102C58.44 102 55.75 99.31 55.75 96C55.75 92.69 58.44 90 61.75 90C65.06 90 67.75 92.69 67.75 96C67.75 99.31 65.06 102 61.75 102ZM95.75 102C92.44 102 89.75 99.31 89.75 96C89.75 92.69 92.44 90 95.75 90C99.06 90 101.75 92.69 101.75 96C101.75 99.31 99.06 102 95.75 102ZM129.75 102C126.44 102 123.75 99.31 123.75 96C123.75 92.69 126.44 90 129.75 90C133.06 90 135.75 92.69 135.75 96C135.75 99.31 133.06 102 129.75 102Z" fill="white"/>
    </g>
    <defs>
        <clipPath id="clip0_277_9050">
            <rect width="192" height="192" fill="white"/>
        </clipPath>
    </defs>
</svg>
