<svg width="192" height="192" viewBox="0 0 192 192" fill="none" xmlns="http://www.w3.org/2000/svg">
    <g clip-path="url(#clip0_287_5921)">
        <path d="M167.95 144.71L140.53 123.14C147.77 112.55 152.01 99.76 152.01 86C152.01 49.61 122.4 20 86.01 20C49.62 20 20 49.61 20 86C20 122.39 49.61 152 86 152C102.87 152 118.27 145.63 129.95 135.18L158.05 157.29C159.52 158.44 161.26 159 162.99 159C165.36 159 167.7 157.95 169.28 155.95C172.01 152.48 171.41 147.45 167.94 144.72L167.95 144.71ZM86 136C58.43 136 36 113.57 36 86C36 58.43 58.43 36 86 36C113.57 36 136 58.43 136 86C136 113.57 113.57 136 86 136Z" fill="white"/>
    </g>
    <defs>
        <clipPath id="clip0_287_5921">
            <rect width="192" height="192" fill="white"/>
        </clipPath>
    </defs>
</svg>
