<svg width="36" height="36" viewBox="0 0 36 36" fill="none" xmlns="http://www.w3.org/2000/svg">
    <path d="M34.8248 21.7221L23.6922 5.05116C20.976 0.982948 15.0254 0.982948 12.3085 5.05116L1.1759 21.7221C-1.88271 26.303 1.38121 32.4615 6.86772 32.4615H29.1323C34.6188 32.4615 37.8827 26.303 34.8241 21.7221H34.8248ZM19.0311 11.0117C19.0311 10.2713 19.6337 9.66528 20.3699 9.66528C21.1061 9.66528 21.7086 10.2713 21.7086 11.0117V13.3538C21.7086 14.0941 21.1061 14.7002 20.3699 14.7002C19.6337 14.7002 19.0311 14.0941 19.0311 13.3538V11.0117ZM14.2928 11.0117C14.2928 10.2713 14.8953 9.66528 15.6315 9.66528C16.3677 9.66528 16.9703 10.2713 16.9703 11.0117V13.3538C16.9703 14.0941 16.3677 14.7002 15.6315 14.7002C14.8953 14.7002 14.2928 14.0941 14.2928 13.3538V11.0117ZM23.4489 20.9817C23.2724 21.073 23.0833 21.1168 22.8969 21.1168C22.4596 21.1168 22.037 20.8764 21.8226 20.4585C21.1975 19.2386 19.6485 18.4183 17.9673 18.4183C16.2861 18.4183 14.8201 19.1849 14.1592 20.3708C13.8329 20.9556 13.0974 21.1642 12.516 20.8361C11.9345 20.5079 11.727 19.7683 12.0533 19.1835C13.1347 17.2438 15.4557 15.99 17.968 15.99C20.4803 15.99 22.9258 17.3074 23.9699 19.3461C24.2751 19.9422 24.0423 20.6741 23.4496 20.981L23.4489 20.9817Z" fill="white"/>
</svg>
