<svg width="192" height="192" viewBox="0 0 192 192" fill="none" xmlns="http://www.w3.org/2000/svg">
    <g clip-path="url(#clip0_246_5787)">
        <path d="M178.21 84.3L156.42 40.72C153.71 35.3 148.17 31.87 142.11 31.87C136.05 31.87 130.48 31.87 123.88 31.87C121.53 31.87 119.29 32.89 117.77 34.69C114.64 38.4 108.31 44.17 96.35 44.28C84 44.4 77.4 38.41 74.19 34.64C72.68 32.87 70.46 31.87 68.14 31.87H49.88C43.82 31.87 38.28 35.29 35.57 40.71L13.79 84.3C11.13 89.62 15 95.88 20.95 95.88H40.01V151.88C40.01 156.3 43.59 159.88 48.01 159.88H144.01C148.43 159.88 152.01 156.3 152.01 151.88V95.88H171.07C177.02 95.88 180.89 89.62 178.23 84.3H178.21ZM124.28 99.04C122.72 100.6 120.19 100.6 118.62 99.04L99.99 80.41V129C99.99 131.21 98.2 133 95.99 133C93.78 133 91.99 131.21 91.99 129V80.41L73.36 99.04C71.8 100.6 69.27 100.6 67.7 99.04C66.14 97.48 66.14 94.95 67.7 93.38L93.16 67.92C94.72 66.36 97.25 66.36 98.82 67.92L124.28 93.38C125.84 94.94 125.84 97.47 124.28 99.04V99.04Z" fill="white"/>
    </g>
    <defs>
        <clipPath id="clip0_246_5787">
            <rect width="191.75" height="191.75" fill="white"/>
        </clipPath>
    </defs>
</svg>
