<svg width="192" height="192" viewBox="0 0 192 192" fill="none" xmlns="http://www.w3.org/2000/svg">
    <g clip-path="url(#clip0_246_5788)">
        <path d="M95.87 84.17C113.626 84.17 128.02 69.776 128.02 52.02C128.02 34.264 113.626 19.87 95.87 19.87C78.114 19.87 63.72 34.264 63.72 52.02C63.72 69.776 78.114 84.17 95.87 84.17Z" fill="white"/>
        <path fill-rule="evenodd" clip-rule="evenodd" d="M47.87 95.8799H143.87C152.707 95.8799 159.87 103.043 159.87 111.88V143.88C159.87 152.716 152.707 159.88 143.87 159.88H47.87C39.0334 159.88 31.87 152.716 31.87 143.88V111.88C31.87 103.043 39.0334 95.8799 47.87 95.8799ZM101.85 115.88H129.87C133.184 115.88 135.87 118.566 135.87 121.88C135.87 125.194 133.184 127.88 129.87 127.88H101.85C98.5363 127.88 95.85 125.194 95.85 121.88C95.85 118.566 98.5363 115.88 101.85 115.88Z" fill="white"/>
    </g>
    <defs>
        <clipPath id="clip0_246_5788">
            <rect width="191.75" height="191.75" fill="white"/>
        </clipPath>
    </defs>
</svg>
