<svg width="36" height="36" viewBox="0 0 36 36" fill="none" xmlns="http://www.w3.org/2000/svg">
    <path d="M18 2C9.16373 2 2 9.16373 2 18C2 26.8363 9.16373 34 18 34C26.8363 34 34 26.8363 34 18C34 9.16373 26.8363 2 18 2ZM19.0425 11.7465C19.0425 11.002 19.6519 10.3925 20.3964 10.3925C21.141 10.3925 21.7504 11.002 21.7504 11.7465V14.1017C21.7504 14.8462 21.141 15.4556 20.3964 15.4556C19.6519 15.4556 19.0425 14.8462 19.0425 14.1017V11.7465ZM14.2503 11.7465C14.2503 11.002 14.8597 10.3925 15.6043 10.3925C16.3488 10.3925 16.9582 11.002 16.9582 11.7465V14.1017C16.9582 14.8462 16.3488 15.4556 15.6043 15.4556C14.8597 15.4556 14.2503 14.8462 14.2503 14.1017V11.7465ZM23.9036 19.6213C22.9187 20.7243 21.104 22.037 18.0462 22.0505C18.0419 22.0505 18.0384 22.0505 18.0341 22.0505C18.0284 22.0505 18.0227 22.0505 18.0171 22.0505C18.0114 22.0505 18.0057 22.0505 18 22.0505C17.9957 22.0505 17.9922 22.0505 17.9879 22.0505C14.9308 22.037 13.1154 20.7243 12.1305 19.6213C10.859 18.1984 10.406 16.5152 10.406 15.4144C10.406 14.7403 10.9529 14.1934 11.627 14.1934C12.3011 14.1934 12.848 14.7403 12.848 15.4144C12.848 16.0885 13.1893 17.1417 13.9516 17.995C14.9052 19.0624 16.2734 19.6057 18.0171 19.6092C19.7607 19.6057 21.1289 19.0631 22.0825 17.995C22.8448 17.1417 23.1861 16.0843 23.1861 15.4144C23.1861 14.7445 23.733 14.1934 24.4071 14.1934C25.0812 14.1934 25.6281 14.7403 25.6281 15.4144C25.6281 16.5152 25.1751 18.1984 23.9036 19.6213Z" fill="white"/>
</svg>
